<?xml version="1.0" encoding="utf-8"?>
<!-- Generator: Adobe Illustrator 16.0.0, SVG Export Plug-In . SVG Version: 6.00 Build 0)  -->
<!DOCTYPE svg PUBLIC "-//W3C//DTD SVG 1.1//EN" "http://www.w3.org/Graphics/SVG/1.1/DTD/svg11.dtd">
<svg version="1.1" id="Calque_1" xmlns="http://www.w3.org/2000/svg" xmlns:xlink="http://www.w3.org/1999/xlink" x="0px" y="0px"
	 width="300px" height="100px" viewBox="0 0 507.629 158.07" enable-background="new 0 0 507.629 158.07"
	 xml:space="preserve">
<g>
	<path fill="#444C4C" d="M120.295,98.049c1.616,0,3.17-0.188,4.66-0.564c1.491-0.376,2.905-0.912,4.242-1.608
		c1.338-0.696,2.577-1.525,3.72-2.486c1.143-0.962,2.159-2.041,3.05-3.239l7.732,6.686c-1.366,1.729-2.904,3.303-4.618,4.723
		c-1.714,1.421-3.566,2.634-5.559,3.637c-1.992,1.002-4.096,1.775-6.31,2.319c-2.215,0.542-4.521,0.814-6.917,0.814
		c-2.757,0-5.411-0.355-7.96-1.065c-2.549-0.711-4.939-1.721-7.167-3.03c-2.229-1.31-4.249-2.869-6.06-4.681
		c-1.812-1.811-3.371-3.83-4.68-6.06c-1.31-2.228-2.319-4.617-3.03-7.167c-0.71-2.549-1.065-5.203-1.065-7.96
		c0-2.758,0.355-5.412,1.065-7.961c0.711-2.549,1.72-4.938,3.03-7.167c1.309-2.229,2.869-4.248,4.68-6.059
		c1.811-1.811,3.831-3.372,6.06-4.681c2.228-1.31,4.618-2.319,7.167-3.03c2.549-0.71,5.203-1.065,7.96-1.065
		c2.396,0,4.702,0.271,6.917,0.814c2.214,0.544,4.318,1.317,6.31,2.319c1.992,1.003,3.845,2.209,5.559,3.615
		c1.713,1.407,3.252,2.974,4.618,4.702l-7.732,6.728c-0.891-1.197-1.908-2.284-3.05-3.259c-1.143-0.976-2.382-1.804-3.72-2.487
		c-1.336-0.682-2.751-1.211-4.242-1.587c-1.49-0.376-3.043-0.565-4.66-0.565c-2.703,0-5.251,0.517-7.647,1.546
		c-2.396,1.031-4.486,2.439-6.269,4.221c-1.783,1.784-3.19,3.866-4.221,6.248c-1.031,2.381-1.546,4.938-1.546,7.668
		c0,2.703,0.516,5.252,1.546,7.647c1.03,2.396,2.438,4.486,4.221,6.269c1.783,1.783,3.873,3.191,6.269,4.222
		C115.044,97.533,117.593,98.049,120.295,98.049z"/>
	<path fill="#444C4C" d="M161.501,48.402v49.02h22.106v10.907h-33.223V48.402H161.501z"/>
	<path fill="#444C4C" d="M226.025,48.402V59.56h-24.824v13.373h24.824v10.866h-24.824v13.373h24.824v11.158h-35.981V48.402H226.025z
		"/>
	<path fill="#444C4C" d="M252.938,108.329c-8.024,0-14.126-4.164-18.305-12.495l9.319-5.559c2.73,5.127,5.823,7.689,9.277,7.689
		c1.81,0,3.399-0.529,4.765-1.588c1.225-1.142,1.838-2.382,1.838-3.72c0-1.309-0.431-2.633-1.294-3.97
		c-0.558-0.641-1.367-1.441-2.425-2.403c-1.059-0.96-2.381-2.11-3.969-3.447c-3.038-2.535-5.552-4.771-7.544-6.708
		c-1.991-1.936-3.446-3.586-4.366-4.952c-1.951-2.786-2.925-5.516-2.925-8.191c0-4.012,1.503-7.452,4.513-10.322
		c3.12-2.842,6.825-4.263,11.117-4.263c2.953,0,5.697,0.71,8.231,2.131c1.311,0.641,2.661,1.56,4.055,2.758
		c1.393,1.198,2.869,2.661,4.429,4.388l-8.231,7.146c-2.759-3.871-5.587-5.808-8.483-5.808c-1.617,0-2.759,0.349-3.427,1.044
		c-0.892,0.697-1.337,1.588-1.337,2.674c0,0.836,0.265,1.7,0.794,2.591c0.529,0.558,1.455,1.428,2.78,2.612
		c1.323,1.184,3.056,2.709,5.202,4.576c2.507,2.089,4.416,3.747,5.727,4.974c0.863,0.78,1.504,1.336,1.921,1.671
		c3.901,3.761,5.851,8.08,5.851,12.956c0,4.791-1.602,8.691-4.805,11.7C262.466,106.824,258.23,108.329,252.938,108.329z"/>
	<path fill="#444C4C" d="M283.695,48.402l2.257,4.179l14.5,28.584v27.164h-11.45V82.294l-17.635-33.892H283.695z M318.131,48.402
		l-9.793,19.099l-2.829,5.516l-6.142-11.744l6.686-12.871H318.131z"/>
	<path fill="#444C4C" d="M370.537,62.36c1.254,2.201,2.187,4.638,2.8,7.313c0.613,2.674,0.947,5.572,1.003,8.692
		c-0.056,3.121-0.39,6.017-1.003,8.692s-1.546,5.113-2.8,7.313c-2.87,4.959-6.394,8.498-10.572,10.615
		c-4.208,2.229-10.615,3.343-19.225,3.343h-15.671V78.366V48.402h15.671c8.609,0,15.017,1.115,19.225,3.343
		C364.144,53.862,367.667,57.401,370.537,62.36z M342.412,97.171c13.456,0,20.31-6.269,20.56-18.805
		c-0.25-12.537-7.104-18.806-20.56-18.806h-5.935v18.806v18.805H342.412z"/>
	<path fill="#444C4C" d="M417.676,48.402V59.56h-24.823v13.373h24.823v10.866h-24.823v13.373h24.823v11.158h-35.981V48.402H417.676z
		"/>
</g>
<g>
	<g>
		<defs>
			<polygon id="SVGID_1_" points="461.083,78.365 377.047,160.921 486.294,160.921 			"/>
		</defs>
		<clipPath id="SVGID_2_">
			<use xlink:href="#SVGID_1_"  overflow="visible"/>
		</clipPath>
		<g clip-path="url(#SVGID_2_)">
			<linearGradient id="SVGID_3_" gradientUnits="userSpaceOnUse" x1="404.1055" y1="113.0586" x2="448.0674" y2="113.0586">
				<stop  offset="0" style="stop-color:#BF2C31"/>
				<stop  offset="0" style="stop-color:#F4CAA8"/>
				<stop  offset="1" style="stop-color:#BE8B71"/>
			</linearGradient>
			
				<rect x="405.605" y="92.578" fill="none" stroke="url(#SVGID_3_)" stroke-width="3" stroke-miterlimit="10" width="40.962" height="40.961"/>
		</g>
	</g>
	<g>
		<defs>
			<polygon id="SVGID_4_" points="46.925,82.556 130.961,0 21.714,0 			"/>
		</defs>
		<clipPath id="SVGID_5_">
			<use xlink:href="#SVGID_4_"  overflow="visible"/>
		</clipPath>
		<g clip-path="url(#SVGID_5_)">
			
				<linearGradient id="SVGID_6_" gradientUnits="userSpaceOnUse" x1="492.793" y1="138.5859" x2="536.7539" y2="138.5859" gradientTransform="matrix(-1 0 0 -1 596.6953 186.4492)">
				<stop  offset="0" style="stop-color:#BF2C31"/>
				<stop  offset="0" style="stop-color:#F4CAA8"/>
				<stop  offset="1" style="stop-color:#BE8B71"/>
			</linearGradient>
			
				<rect x="61.441" y="27.382" fill="none" stroke="url(#SVGID_6_)" stroke-width="3" stroke-miterlimit="10" width="40.961" height="40.961"/>
		</g>
	</g>
</g>
</svg>
