<svg xmlns="http://www.w3.org/2000/svg" width="283.467" height="75.587"><path d="M2071.06 194.445c0 23.774-19.35 43.129-43.13 43.129-23.79 0-43.14-19.355-43.14-43.129 0-23.793 19.35-43.144 43.14-43.144 23.78 0 43.13 19.351 43.13 43.144zm-317.31 65.715h191.22v23.824c0 18.379-2.9 35.965-8.63 52.27-5.74 16.305-14.05 30.961-24.71 43.562-10.7 12.649-24.71 22.793-41.62 30.161-16.9 7.351-36.09 11.086-57.06 11.086-39.89 0-72.73-13.083-97.64-38.875-24.89-25.782-37.51-59.629-37.51-100.614 0-25.82 5.85-49.476 17.4-70.312 11.57-20.852 27.72-37.321 48.01-48.985 20.26-11.632 43.24-17.523 68.28-17.523 35 0 64.38 8.226 87.32 24.473 23.01 16.293 37.73 38.695 43.72 66.543l.44 2.07h-72.21l-.46-.985c-3.83-8.246-10.68-15.257-20.34-20.839-9.71-5.625-21.68-8.469-35.57-8.469-17.27 0-31.56 5.129-42.48 15.226-10.5 9.688-16.6 22.27-18.16 37.387zm1.56 54.145c2.06 11.66 8.26 21.879 18.46 30.386v.008c10.77 8.992 23.95 13.551 39.18 13.551 16.19 0 29.69-4.367 40.15-12.977 9.91-8.168 15.8-18.578 17.54-30.968zM1555.3 151.234h79.39v350.961l-79.87 22.305V384.992h-1.46c-6.09 9.008-15.37 17.289-27.62 24.637-12.66 7.59-28.4 11.434-46.78 11.434-35.13 0-64.09-13.063-86.07-38.829-21.94-25.687-33.06-59.554-33.06-100.66 0-40.953 11.2-74.336 33.31-99.219 22.16-24.953 51.68-37.601 87.73-37.601 10.3 0 19.9 1.32 28.56 3.914 8.72 2.594 16.1 6.023 21.96 10.219 5.7 4.09 10.43 7.988 14.08 11.605 3.32 3.34 6.16 6.813 8.4 10.313h1.43zm.97 131.789c0-19.031-5.37-34.949-15.97-47.332-10.53-12.289-24.67-18.527-42.06-18.527-17.41 0-31.65 6.078-42.33 18.074-10.76 12.047-16.21 28.117-16.21 47.785 0 19.352 5.45 35.317 16.21 47.438 10.7 12.062 24.76 18.18 41.83 18.18 17.09 0 31.26-6.004 42.12-17.848 10.88-11.871 16.41-27.941 16.41-47.77zm-320.66-168.175 111.21 299.715h-84.49L1208 249.637h-1.39l-56.59 163.781-.4 1.145h-83.53l103.56-266.43-4.33-11.848c-7.45-18.379-19.76-27.312-37.59-27.312h-31.76v-70.97h36.08c26.55 0 48.35 6.544 64.78 19.462 16.36 12.902 29.41 32.203 38.78 57.383zm-181.78 118.437c0 12.426-1.89 23.512-5.62 32.953-3.73 9.496-8.88 17.215-15.28 22.961-6.35 5.664-13.71 10.531-21.89 14.461-8.21 3.953-16.7 6.746-25.227 8.293l-69.086 12.57c-5.508 1.008-9.329 2.676-11.348 4.969-2.027 2.305-3.02 5.266-3.02 9.035 0 5.797 3.086 10.387 9.438 14.032 6.586 3.777 15.574 5.691 26.723 5.691 11.746 0 21.043-2.023 27.636-6.004 6.485-3.933 10.223-9.137 11.426-15.906l.254-1.41h69.124l-.11 1.816c-1.63 26.856-12.45 47.863-32.15 62.449-19.587 14.508-45.212 21.868-76.18 21.868-34.602 0-62.184-8.426-81.989-25.051-19.883-16.676-29.961-37.492-29.961-61.86 0-13.066 2.192-24.609 6.52-34.3 4.34-9.762 10.098-17.383 17.109-22.653 6.922-5.187 14.942-9.609 23.844-13.136a134.671 134.671 0 0 1 27.352-7.614l50.441-8.402c6.633-1.109 12.562-3.313 17.613-6.57 4.813-3.102 7.153-7 7.153-11.946 0-6.676-3.149-11.859-9.625-15.84-6.645-4.074-16.231-6.144-28.469-6.144s-22.047 2.23-29.16 6.652c-7.028 4.356-10.879 10.485-11.789 18.754l-.161 1.524h-72.55l.054-1.766c.821-27.461 10.774-49.246 29.586-64.742 18.739-15.399 46.844-23.215 83.543-23.215 36.258 0 64.899 8.215 85.129 24.418 20.35 16.297 30.67 37.867 30.67 64.113zM593.438 260.16h191.238v23.824c0 18.321-2.906 35.907-8.629 52.27-5.734 16.301-14.051 30.961-24.731 43.562-10.699 12.657-24.703 22.805-41.617 30.161-16.886 7.351-36.09 11.086-57.058 11.086-39.887 0-72.739-13.083-97.641-38.875-24.895-25.786-37.508-59.633-37.508-100.614 0-25.82 5.856-49.476 17.403-70.312 11.562-20.852 27.714-37.321 48.011-48.985 20.278-11.632 43.25-17.523 68.297-17.523 34.988 0 64.363 8.226 87.297 24.473 23.016 16.293 37.727 38.679 43.727 66.543l.445 2.07h-72.207l-.461-.985c-3.836-8.23-10.68-15.242-20.344-20.839-9.719-5.625-21.687-8.469-35.57-8.469-17.258 0-31.559 5.129-42.485 15.226-10.5 9.688-16.601 22.27-18.167 37.387zm1.578 54.145c2.062 11.675 8.261 21.89 18.453 30.386v.008c10.765 8.992 23.941 13.551 39.172 13.551 16.187 0 29.699-4.367 40.152-12.977 9.902-8.16 15.801-18.574 17.551-30.968zM457.785 151.234h27.914v70.5h-11.09c-13.414 0-19.933 7.145-19.933 21.852V524.5l-78.625-21.949-1.25-.356V234.703c0-25.98 7.328-46.617 21.773-61.324 14.453-14.691 35.051-22.145 61.211-22.145zM246.023 310.406h80.59l-.218 1.903c-3.715 32.199-17.915 58.664-42.204 78.675-24.242 19.954-54.859 30.079-91 30.079-27.414 0-51.976-6.184-73.019-18.387-21.04-12.192-37.356-28.922-48.5-49.715-11.113-20.738-16.75-44.273-16.75-69.938 0-25.492 5.637-48.988 16.75-69.8 11.125-20.864 27.523-37.68 48.738-49.981 21.199-12.265 45.844-18.488 73.254-18.488 35.676 0 65.852 9.871 89.688 29.359 23.875 19.516 38.199 45.321 42.57 76.7l.266 1.949h-81.114l-.379-1.192c-3.234-10.148-9.484-18.523-18.574-24.855-9.144-6.332-19.902-9.551-31.965-9.551-17.683 0-32.136 6.281-42.957 18.66-10.886 12.438-16.402 28.317-16.402 47.199 0 18.723 5.445 34.536 16.176 46.977 10.668 12.367 25.031 18.641 42.691 18.641 12.699 0 23.809-3.453 33.02-10.258 9.175-6.781 15.558-15.789 18.972-26.774l.367-1.203" style="fill:#000;fill-opacity:1;fill-rule:nonzero;stroke:none" transform="matrix(.13333 0 0 -.13333 0 75.587)"/></svg>