<svg xmlns="http://www.w3.org/2000/svg" width="600" height="600"><path d="M0 0h600v600H0z" style="fill:#fff;fill-opacity:1;stroke:none"/><path d="M133.543 376.414c12.234 22.918 30 41.121 53.297 54.613 23.297 13.504 50.035 20.25 80.226 20.25 39.258 0 71.985-10.703 98.192-32.105 26.191-21.402 41.699-49.336 46.488-83.79h-86.32c-3.73 11.72-10.84 21.22-21.313 28.513-10.488 7.277-22.644 10.914-36.515 10.914-20.235 0-36.59-7.094-49.02-21.313-12.43-14.203-18.644-32.058-18.644-53.55 0-21.313 6.125-39.079 18.37-53.294 12.262-14.203 28.512-21.312 48.762-21.312 14.567 0 27.133 3.91 37.715 11.715 10.563 7.824 17.793 18.039 21.703 30.648h85.793c-4.078-35.348-19.449-63.992-46.093-85.926-26.633-21.933-59.86-32.906-99.645-32.906-30.195 0-56.86 6.715-79.973 20.113-23.117 13.414-40.789 31.528-53.023 54.356-12.23 22.824-18.34 48.367-18.34 76.605 0 28.07 6.11 53.551 18.34 76.47M478.742 445.594c25.36 0 45.914-20.555 45.914-45.899 0-25.36-20.554-45.914-45.914-45.914-25.344 0-45.894 20.555-45.894 45.914 0 25.344 20.55 45.899 45.894 45.899" style="stroke:none;fill-rule:nonzero;fill:#040606;fill-opacity:1"/></svg>